G04*
G04 #@! TF.GenerationSoftware,Altium Limited,Altium Designer,20.0.13 (296)*
G04*
G04 Layer_Physical_Order=1*
G04 Layer_Color=255*
%FSLAX24Y24*%
%MOIN*%
G70*
G01*
G75*
%ADD12R,0.3937X0.0551*%
%ADD16C,0.0300*%
%ADD17C,0.0720*%
%ADD18R,0.0720X0.0720*%
D12*
X34700Y39200D02*
D03*
Y38200D02*
D03*
Y37200D02*
D03*
Y36200D02*
D03*
Y35200D02*
D03*
D16*
X29000Y39000D02*
X29170Y39170D01*
X34670D02*
X34700Y39200D01*
X29170Y39170D02*
X34670D01*
X29580Y36820D02*
X30200Y36200D01*
X26000Y36996D02*
Y39000D01*
Y36996D02*
X26176Y36820D01*
X29580D01*
X27600Y37400D02*
X30000D01*
X28200Y38000D02*
X30200D01*
X24176Y35000D02*
X30200D01*
X24000Y35176D02*
X24176Y35000D01*
X24000Y35176D02*
Y37400D01*
X30200Y35000D02*
X30400Y35200D01*
X24800Y38800D02*
X25000Y39000D01*
X24800Y38200D02*
Y38800D01*
X24000Y37400D02*
X24800Y38200D01*
X30400Y35200D02*
X34400D01*
X30200Y36200D02*
X34400D01*
X27000Y38000D02*
Y39000D01*
Y38000D02*
X27600Y37400D01*
X30000D02*
X30200Y37200D01*
X34200D01*
X28000Y38200D02*
Y39000D01*
Y38200D02*
X28200Y38000D01*
X30200D02*
X30400Y38200D01*
X34400D01*
D17*
X25000Y36000D02*
D03*
X26000D02*
D03*
X27000D02*
D03*
X28000D02*
D03*
X25000Y39000D02*
D03*
X26000D02*
D03*
X27000D02*
D03*
X28000D02*
D03*
D18*
X29000Y36000D02*
D03*
Y39000D02*
D03*
M02*
