G04*
G04 #@! TF.GenerationSoftware,Altium Limited,Altium Designer,20.0.13 (296)*
G04*
G04 Layer_Color=65535*
%FSLAX23Y23*%
%MOIN*%
G70*
G01*
G75*
%ADD10C,0.008*%
%ADD11C,0.015*%
D10*
X2950Y3550D02*
X2950Y3650D01*
X2450Y3550D02*
X2950Y3550D01*
X2450Y3650D02*
X2950Y3650D01*
X2450Y3550D02*
X2450Y3650D01*
X2950Y3850D02*
X2950Y3950D01*
X2450Y3850D02*
X2950Y3850D01*
X2450Y3950D02*
X2950Y3950D01*
X2450Y3850D02*
X2450Y3950D01*
D11*
X2395Y3517D02*
X2403Y3525D01*
X2420Y3525D01*
X2428Y3517D01*
X2428Y3508D01*
X2420Y3500D01*
X2428Y3492D01*
X2428Y3483D01*
X2420Y3475D01*
X2403Y3475D01*
X2395Y3483D01*
X2395Y3492D01*
X2403Y3500D01*
X2395Y3508D01*
X2395Y3517D01*
X2403Y3500D02*
X2420Y3500D01*
X2445Y3508D02*
X2453Y3508D01*
X2453Y3500D01*
X2445Y3500D01*
X2445Y3508D01*
X2445Y3483D02*
X2453Y3483D01*
X2453Y3475D01*
X2445Y3475D01*
X2445Y3483D01*
X2520Y3517D02*
X2512Y3525D01*
X2495Y3525D01*
X2487Y3517D01*
X2487Y3483D01*
X2495Y3475D01*
X2512Y3475D01*
X2520Y3483D01*
X2520Y3500D01*
X2503Y3500D01*
X2537Y3475D02*
X2537Y3525D01*
X2570Y3475D01*
X2570Y3525D01*
X2587Y3525D02*
X2587Y3475D01*
X2612Y3475D01*
X2620Y3483D01*
X2620Y3517D01*
X2612Y3525D01*
X2587Y3525D01*
X2820Y3475D02*
X2787Y3475D01*
X2820Y3508D01*
X2820Y3517D01*
X2812Y3525D01*
X2795Y3525D01*
X2787Y3517D01*
X2853Y3475D02*
X2837Y3492D01*
X2837Y3508D01*
X2853Y3525D01*
X2878Y3475D02*
X2878Y3525D01*
X2911Y3475D01*
X2911Y3525D01*
X2961Y3517D02*
X2953Y3525D01*
X2936Y3525D01*
X2928Y3517D01*
X2928Y3483D01*
X2936Y3475D01*
X2953Y3475D01*
X2961Y3483D01*
X2978Y3475D02*
X2995Y3492D01*
X2995Y3508D01*
X2978Y3525D01*
X3020Y3508D02*
X3028Y3508D01*
X3028Y3500D01*
X3020Y3500D01*
X3020Y3508D01*
X3020Y3483D02*
X3028Y3483D01*
X3028Y3475D01*
X3020Y3475D01*
X3020Y3483D01*
X3061Y3500D02*
X3095Y3500D01*
X3078Y3517D02*
X3078Y3483D01*
X3145Y3475D02*
X3111Y3475D01*
X3145Y3508D01*
X3145Y3517D01*
X3136Y3525D01*
X3120Y3525D01*
X3111Y3517D01*
X3186Y3475D02*
X3186Y3525D01*
X3161Y3500D01*
X3195Y3500D01*
X3211Y3525D02*
X3211Y3492D01*
X3228Y3475D01*
X3245Y3492D01*
X3245Y3525D01*
X2495Y3783D02*
X2503Y3775D01*
X2520Y3775D01*
X2528Y3783D01*
X2528Y3817D01*
X2520Y3825D01*
X2503Y3825D01*
X2495Y3817D01*
X2495Y3808D01*
X2503Y3800D01*
X2528Y3800D01*
X2595Y3825D02*
X2628Y3825D01*
X2628Y3817D01*
X2595Y3783D01*
X2595Y3775D01*
X2728Y3825D02*
X2695Y3825D01*
X2695Y3800D01*
X2712Y3808D01*
X2720Y3808D01*
X2728Y3800D01*
X2728Y3783D01*
X2720Y3775D01*
X2703Y3775D01*
X2695Y3783D01*
X2795Y3817D02*
X2803Y3825D01*
X2820Y3825D01*
X2828Y3817D01*
X2828Y3808D01*
X2820Y3800D01*
X2812Y3800D01*
X2820Y3800D01*
X2828Y3792D01*
X2828Y3783D01*
X2820Y3775D01*
X2803Y3775D01*
X2795Y3783D01*
X2895Y3775D02*
X2912Y3775D01*
X2903Y3775D01*
X2903Y3825D01*
X2895Y3817D01*
X2600Y3675D02*
X2600Y3725D01*
X2575Y3700D01*
X2608Y3700D01*
X2708Y3725D02*
X2692Y3717D01*
X2675Y3700D01*
X2675Y3683D01*
X2683Y3675D01*
X2700Y3675D01*
X2708Y3683D01*
X2708Y3692D01*
X2700Y3700D01*
X2675Y3700D01*
X2775Y3717D02*
X2783Y3725D01*
X2800Y3725D01*
X2808Y3717D01*
X2808Y3708D01*
X2800Y3700D01*
X2808Y3692D01*
X2808Y3683D01*
X2800Y3675D01*
X2783Y3675D01*
X2775Y3683D01*
X2775Y3692D01*
X2783Y3700D01*
X2775Y3708D01*
X2775Y3717D01*
X2783Y3700D02*
X2800Y3700D01*
X2875Y3675D02*
X2892Y3675D01*
X2883Y3675D01*
X2883Y3725D01*
X2875Y3717D01*
X2917Y3717D02*
X2925Y3725D01*
X2942Y3725D01*
X2950Y3717D01*
X2950Y3683D01*
X2942Y3675D01*
X2925Y3675D01*
X2917Y3683D01*
X2917Y3717D01*
M02*
