G04*
G04 #@! TF.GenerationSoftware,Altium Limited,Altium Designer,20.0.13 (296)*
G04*
G04 Layer_Color=32896*
%FSLAX24Y24*%
%MOIN*%
G70*
G01*
G75*
%ADD11C,0.0150*%
D11*
X31730Y35491D02*
X31897D01*
X31813D01*
Y34991D01*
X31730Y35074D01*
X32147D02*
X32230Y34991D01*
X32396D01*
X32480Y35074D01*
Y35407D01*
X32396Y35491D01*
X32230D01*
X32147Y35407D01*
Y35074D01*
X31730Y36034D02*
X31813Y35951D01*
X31980D01*
X32063Y36034D01*
Y36117D01*
X31980Y36201D01*
X32063Y36284D01*
Y36367D01*
X31980Y36451D01*
X31813D01*
X31730Y36367D01*
Y36284D01*
X31813Y36201D01*
X31730Y36117D01*
Y36034D01*
X31813Y36201D02*
X31980D01*
X32063Y36911D02*
X31897Y36994D01*
X31730Y37160D01*
Y37327D01*
X31813Y37410D01*
X31980D01*
X32063Y37327D01*
Y37244D01*
X31980Y37160D01*
X31730D01*
X31980Y38370D02*
Y37870D01*
X31730Y38120D01*
X32063D01*
Y39330D02*
X31730D01*
X32063Y38997D01*
Y38913D01*
X31980Y38830D01*
X31813D01*
X31730Y38913D01*
X23979Y34660D02*
X24062Y34577D01*
X24229D01*
X24312Y34660D01*
Y34743D01*
X24229Y34826D01*
X24312Y34910D01*
Y34993D01*
X24229Y35076D01*
X24062D01*
X23979Y34993D01*
Y34910D01*
X24062Y34826D01*
X23979Y34743D01*
Y34660D01*
X24062Y34826D02*
X24229D01*
X24479Y34743D02*
X24562D01*
Y34826D01*
X24479D01*
Y34743D01*
Y34993D02*
X24562D01*
Y35076D01*
X24479D01*
Y34993D01*
X25228Y34660D02*
X25145Y34577D01*
X24978D01*
X24895Y34660D01*
Y34993D01*
X24978Y35076D01*
X25145D01*
X25228Y34993D01*
Y34826D01*
X25062D01*
X25395Y35076D02*
Y34577D01*
X25728Y35076D01*
Y34577D01*
X25895D02*
Y35076D01*
X26145D01*
X26228Y34993D01*
Y34660D01*
X26145Y34577D01*
X25895D01*
X27228Y35076D02*
X26894D01*
X27228Y34743D01*
Y34660D01*
X27144Y34577D01*
X26978D01*
X26894Y34660D01*
X27561Y35076D02*
X27394Y34910D01*
Y34743D01*
X27561Y34577D01*
X27811Y35076D02*
Y34577D01*
X28144Y35076D01*
Y34577D01*
X28644Y34660D02*
X28561Y34577D01*
X28394D01*
X28311Y34660D01*
Y34993D01*
X28394Y35076D01*
X28561D01*
X28644Y34993D01*
X28811Y35076D02*
X28977Y34910D01*
Y34743D01*
X28811Y34577D01*
X29227Y34743D02*
X29310D01*
Y34826D01*
X29227D01*
Y34743D01*
Y34993D02*
X29310D01*
Y35076D01*
X29227D01*
Y34993D01*
X29644Y34826D02*
X29977D01*
X29810Y34660D02*
Y34993D01*
X30477Y35076D02*
X30143D01*
X30477Y34743D01*
Y34660D01*
X30393Y34577D01*
X30227D01*
X30143Y34660D01*
X30893Y35076D02*
Y34577D01*
X30643Y34826D01*
X30976D01*
X31143Y34577D02*
Y34910D01*
X31310Y35076D01*
X31476Y34910D01*
Y34577D01*
X24825Y38172D02*
X24908Y38256D01*
X25075D01*
X25158Y38172D01*
Y37839D01*
X25075Y37756D01*
X24908D01*
X24825Y37839D01*
Y37922D01*
X24908Y38006D01*
X25158D01*
X25825Y37756D02*
X26158D01*
Y37839D01*
X25825Y38172D01*
Y38256D01*
X27158Y37756D02*
X26825D01*
Y38006D01*
X26991Y37922D01*
X27074D01*
X27158Y38006D01*
Y38172D01*
X27074Y38256D01*
X26908D01*
X26825Y38172D01*
X27824Y37839D02*
X27908Y37756D01*
X28074D01*
X28157Y37839D01*
Y37922D01*
X28074Y38006D01*
X27991D01*
X28074D01*
X28157Y38089D01*
Y38172D01*
X28074Y38256D01*
X27908D01*
X27824Y38172D01*
X28824Y38256D02*
X28991D01*
X28907D01*
Y37756D01*
X28824Y37839D01*
X25951Y37163D02*
Y36663D01*
X25701Y36913D01*
X26034D01*
X27034Y36663D02*
X26867Y36746D01*
X26701Y36913D01*
Y37080D01*
X26784Y37163D01*
X26951D01*
X27034Y37080D01*
Y36996D01*
X26951Y36913D01*
X26701D01*
X27701Y36746D02*
X27784Y36663D01*
X27950D01*
X28034Y36746D01*
Y36830D01*
X27950Y36913D01*
X28034Y36996D01*
Y37080D01*
X27950Y37163D01*
X27784D01*
X27701Y37080D01*
Y36996D01*
X27784Y36913D01*
X27701Y36830D01*
Y36746D01*
X27784Y36913D02*
X27950D01*
X28700Y37163D02*
X28867D01*
X28784D01*
Y36663D01*
X28700Y36746D01*
X29117D02*
X29200Y36663D01*
X29367D01*
X29450Y36746D01*
Y37080D01*
X29367Y37163D01*
X29200D01*
X29117Y37080D01*
Y36746D01*
M02*
