G04*
G04 #@! TF.GenerationSoftware,Altium Limited,Altium Designer,20.0.13 (296)*
G04*
G04 Layer_Color=65535*
%FSLAX24Y24*%
%MOIN*%
G70*
G01*
G75*
%ADD10C,0.0079*%
%ADD11C,0.0150*%
D10*
X29500Y35500D02*
Y36500D01*
X24500Y35500D02*
X29500D01*
X24500Y36500D02*
X29500D01*
X24500Y35500D02*
Y36500D01*
X29500Y38500D02*
Y39500D01*
X24500Y38500D02*
X29500D01*
X24500Y39500D02*
X29500D01*
X24500Y38500D02*
Y39500D01*
D11*
X32080Y35437D02*
X31997Y35521D01*
X31830D01*
X31747Y35437D01*
Y35104D01*
X31830Y35021D01*
X31997D01*
X32080Y35104D01*
Y35188D01*
X31997Y35271D01*
X31747D01*
X32080Y35981D02*
X31747D01*
Y36064D01*
X32080Y36397D01*
Y36481D01*
X31747Y36941D02*
X32080D01*
Y37190D01*
X31913Y37107D01*
X31830D01*
X31747Y37190D01*
Y37357D01*
X31830Y37440D01*
X31997D01*
X32080Y37357D01*
Y37984D02*
X31997Y37900D01*
X31830D01*
X31747Y37984D01*
Y38067D01*
X31830Y38150D01*
X31913D01*
X31830D01*
X31747Y38234D01*
Y38317D01*
X31830Y38400D01*
X31997D01*
X32080Y38317D01*
Y39360D02*
X31913D01*
X31997D01*
Y38860D01*
X32080Y38943D01*
M02*
